<svg xmlns="http://www.w3.org/2000/svg" width="38" height="43" viewBox="0 0 38 43" fill="none">
<path d="M1.64844 23.061C1.91558 23.1244 2.19164 23.1587 2.47363 23.1587H18.1396V42.3579H5.77148C3.49909 42.3579 1.64844 40.2037 1.64844 37.5581V23.061ZM36.2793 37.5581C36.2793 40.2037 34.4286 42.3579 32.1562 42.3579H19.7881V23.1587H35.4541C35.7361 23.1587 36.0121 23.1244 36.2793 23.061V37.5581ZM11.2559 9.72021C12.0919 10.7224 13.0669 11.571 14.1553 12.2046L12.2666 14.4028C11.8001 14.948 11.543 15.6722 11.543 16.4399C11.5431 17.2075 11.7986 17.9329 12.2666 18.4761C12.7349 19.0194 13.357 19.3188 14.0166 19.3188C14.6762 19.3188 15.2983 19.0194 15.7666 18.4761L18.1396 15.7114V21.2388H2.47363C1.11 21.2388 0.000217597 19.9474 0 18.3599V12.6001C0 11.0124 1.10986 9.72021 2.47363 9.72021H11.2559ZM35.4541 9.72021C36.8179 9.72021 37.9277 11.0124 37.9277 12.6001V18.3599C37.9275 19.9474 36.8177 21.2388 35.4541 21.2388H19.7881V15.7114L22.1611 18.4761C22.6295 19.0194 23.2515 19.3188 23.9111 19.3188C24.5707 19.3188 25.1945 19.0213 25.6611 18.4761C26.1275 17.931 26.3847 17.2094 26.3848 16.4399C26.3848 15.6702 26.1276 14.9461 25.6611 14.4028L23.7725 12.2046C24.8608 11.571 25.8358 10.7243 26.6719 9.72021H35.4541ZM24.6201 0.556152C25.5832 0.224046 26.6587 0.658634 27.2705 1.61279C27.7354 2.34037 27.8758 3.24488 27.6582 4.09717C26.6984 7.85807 23.9801 10.6359 20.7529 11.4058L24.4951 15.7622C24.8164 16.1366 24.8166 16.7453 24.4951 17.1196C24.3335 17.3058 24.1222 17.3999 23.9111 17.3999C23.7001 17.3999 23.4887 17.3058 23.3271 17.1177L18.9639 12.0376L14.6006 17.1196C14.439 17.3057 14.2276 17.3999 14.0166 17.3999C13.8056 17.3999 13.5942 17.3058 13.4326 17.1177C13.1112 16.7434 13.1113 16.1347 13.4326 15.7603L17.1748 11.4038C13.946 10.634 11.23 7.85607 10.2686 4.09521C10.0509 3.24487 10.1924 2.33844 10.6572 1.61279C11.269 0.660538 12.3465 0.224048 13.3096 0.558105C15.8771 1.44702 17.9002 3.63988 18.9639 6.3833C20.0275 3.6379 22.0509 1.44697 24.6201 0.556152ZM12.627 2.36084C12.383 2.36084 12.1404 2.51091 11.9805 2.76025C11.8915 2.89843 11.7575 3.18471 11.8496 3.54736C12.6939 6.85146 15.1895 9.24976 18.0869 9.65869C17.7357 6.28752 15.6758 3.38297 12.8379 2.3999C12.7671 2.37499 12.6961 2.36089 12.627 2.36084ZM25.3008 2.36084C25.23 2.36089 25.159 2.37496 25.0898 2.39795C22.2503 3.38103 20.1904 6.28753 19.8408 9.65869C22.7366 9.24976 25.2319 6.85146 26.0762 3.54736C26.17 3.18467 26.0363 2.89844 25.9473 2.76025C25.7873 2.51093 25.5447 2.36084 25.3008 2.36084Z" fill="#4FBF67"/>
</svg>